<svg xmlns="http://www.w3.org/2000/svg" version="1.1" xmlns:xlink="http://www.w3.org/1999/xlink" width="1000" height="1000"><style>
    #light-icon {
      display: inline;
    }
    #dark-icon {
      display: none;
    }

    @media (prefers-color-scheme: dark) {
      #light-icon {
        display: none;
      }
      #dark-icon {
        display: inline;
      }
    }
  </style><g id="light-icon"><svg xmlns="http://www.w3.org/2000/svg" version="1.1" xmlns:xlink="http://www.w3.org/1999/xlink" width="1000" height="1000"><g><g transform="matrix(3.861003861003861,0,0,3.861003861003861,144.7876447876448,0)"><svg xmlns="http://www.w3.org/2000/svg" version="1.1" xmlns:xlink="http://www.w3.org/1999/xlink" width="184" height="259"><svg width="184" height="259" viewBox="0 0 184 259" fill="none" xmlns="http://www.w3.org/2000/svg">
<path d="M6.94376 0C-7.23134 37.0106 2.41545 183.596 16.9201 258.343H169.444C181.944 258.343 215.944 213 95.4437 186.5C173.944 164 91.4437 117 63.9438 113.5C135.944 88.5 24.1363 11.6044 6.94376 0Z" fill="#005D53"></path>
</svg></svg></g></g></svg></g><g id="dark-icon"><svg xmlns="http://www.w3.org/2000/svg" version="1.1" xmlns:xlink="http://www.w3.org/1999/xlink" width="1000" height="1000"><g><g transform="matrix(3.0303030303030303,0,0,3.0303030303030303,0,0)"><svg xmlns="http://www.w3.org/2000/svg" version="1.1" xmlns:xlink="http://www.w3.org/1999/xlink" width="330" height="330"><svg width="330" height="330" viewBox="0 0 330 330" fill="none" xmlns="http://www.w3.org/2000/svg">
<rect width="330" height="330" rx="44" fill="white"></rect>
<path d="M79.9438 36C65.7687 73.0106 75.4155 219.596 89.9201 294.343H242.444C254.944 294.343 288.944 249 168.444 222.5C246.944 200 164.444 153 136.944 149.5C208.944 124.5 97.1363 47.6044 79.9438 36Z" fill="#005D53"></path>
</svg></svg></g></g></svg></g></svg>