<svg width="33" height="33" viewBox="0 0 33 33" fill="none" xmlns="http://www.w3.org/2000/svg">
<rect width="33" height="33" rx="4" fill="white"/>
<path d="M10.1 6.4C9.38394 6.4 8.69718 6.68446 8.19084 7.19081C7.68449 7.69716 7.40002 8.38392 7.40002 9.1V11.5C7.40002 11.7387 7.49485 11.9676 7.66363 12.1364C7.83241 12.3052 8.06133 12.4 8.30002 12.4C8.53872 12.4 8.76764 12.3052 8.93642 12.1364C9.1052 11.9676 9.20002 11.7387 9.20002 11.5V9.1C9.20002 8.86131 9.29485 8.63239 9.46363 8.46361C9.63241 8.29482 9.86133 8.2 10.1 8.2H12.5C12.7387 8.2 12.9676 8.10518 13.1364 7.9364C13.3052 7.76762 13.4 7.5387 13.4 7.3C13.4 7.06131 13.3052 6.83239 13.1364 6.66361C12.9676 6.49482 12.7387 6.4 12.5 6.4H10.1ZM21.5 6.4C21.2613 6.4 21.0324 6.49482 20.8636 6.66361C20.6948 6.83239 20.6 7.06131 20.6 7.3C20.6 7.5387 20.6948 7.76762 20.8636 7.9364C21.0324 8.10518 21.2613 8.2 21.5 8.2H23.9C24.1387 8.2 24.3676 8.29482 24.5364 8.46361C24.7052 8.63239 24.8 8.86131 24.8 9.1V11.5C24.8 11.7387 24.8948 11.9676 25.0636 12.1364C25.2324 12.3052 25.4613 12.4 25.7 12.4C25.9387 12.4 26.1676 12.3052 26.3364 12.1364C26.5052 11.9676 26.6 11.7387 26.6 11.5V9.1C26.6 8.38392 26.3156 7.69716 25.8092 7.19081C25.3029 6.68446 24.6161 6.4 23.9 6.4H21.5ZM9.20002 20.5C9.20002 20.2613 9.1052 20.0324 8.93642 19.8636C8.76764 19.6948 8.53872 19.6 8.30002 19.6C8.06133 19.6 7.83241 19.6948 7.66363 19.8636C7.49485 20.0324 7.40002 20.2613 7.40002 20.5V22.9C7.40002 23.6161 7.68449 24.3028 8.19084 24.8092C8.69718 25.3155 9.38394 25.6 10.1 25.6H12.5C12.7387 25.6 12.9676 25.5052 13.1364 25.3364C13.3052 25.1676 13.4 24.9387 13.4 24.7C13.4 24.4613 13.3052 24.2324 13.1364 24.0636C12.9676 23.8948 12.7387 23.8 12.5 23.8H10.1C9.86133 23.8 9.63241 23.7052 9.46363 23.5364C9.29485 23.3676 9.20002 23.1387 9.20002 22.9V20.5ZM26.6 20.5C26.6 20.2613 26.5052 20.0324 26.3364 19.8636C26.1676 19.6948 25.9387 19.6 25.7 19.6C25.4613 19.6 25.2324 19.6948 25.0636 19.8636C24.8948 20.0324 24.8 20.2613 24.8 20.5V22.9C24.8 23.1387 24.7052 23.3676 24.5364 23.5364C24.3676 23.7052 24.1387 23.8 23.9 23.8H21.5C21.2613 23.8 21.0324 23.8948 20.8636 24.0636C20.6948 24.2324 20.6 24.4613 20.6 24.7C20.6 24.9387 20.6948 25.1676 20.8636 25.3364C21.0324 25.5052 21.2613 25.6 21.5 25.6H23.9C24.6161 25.6 25.3029 25.3155 25.8092 24.8092C26.3156 24.3028 26.6 23.6161 26.6 22.9V20.5ZM13.4 16C13.4 15.0452 13.7793 14.1295 14.4544 13.4544C15.1296 12.7793 16.0452 12.4 17 12.4C17.9548 12.4 18.8705 12.7793 19.5456 13.4544C20.2207 14.1295 20.6 15.0452 20.6 16C20.6 16.9548 20.2207 17.8705 19.5456 18.5456C18.8705 19.2207 17.9548 19.6 17 19.6C16.0452 19.6 15.1296 19.2207 14.4544 18.5456C13.7793 17.8705 13.4 16.9548 13.4 16Z" fill="black"/>
</svg>
